<svg id="b142c218-c3ca-487e-979b-dffd11e3a76c" 
data-name="Layer 1" 
xmlns="http://www.w3.org/2000/svg" 
width="532.48525" height="389.35169" 
viewBox="0 15 330 270">
<path d="M642.25738,519.40775h-291a17.52,17.52,0,0,1-17.5-17.5v-174a17.52,17.52,0,0,1,17.5-17.5h291a17.52,17.52,0,0,1,17.5,17.5v174A17.52,17.52,0,0,1,642.25738,519.40775Zm-291-206a14.51669,14.51669,0,0,0-14.5,14.5v174a14.51669,14.51669,0,0,0,14.5,14.5h291a14.51669,14.51669,0,0,0,14.5-14.5v-174a14.5167,14.5167,0,0,0-14.5-14.5Z" transform="translate(-333.75738 -255.32415)" fill="#3f3d56"/><path d="M390.25738,351.40775a12.5,12.5,0,1,1,12.5-12.5A12.51408,12.51408,0,0,1,390.25738,351.40775Zm0-22a9.5,9.5,0,1,0,9.5,9.5A9.5108,9.5108,0,0,0,390.25738,329.40775Z" transform="translate(-333.75738 -255.32415)" fill="#3f3d56"/><path d="M601.25738,351.40775a12.5,12.5,0,1,1,12.5-12.5A12.51408,12.51408,0,0,1,601.25738,351.40775Zm0-22a9.5,9.5,0,1,0,9.5,9.5A9.5108,9.5108,0,0,0,601.25738,329.40775Z" transform="translate(-333.75738 -255.32415)" fill="#3f3d56"/><path d="M419.75738,427.40775h-54a8.51012,8.51012,0,0,1-8.5-8.5v-32a8.51013,8.51013,0,0,1,8.5-8.5h54a8.51014,8.51014,0,0,1,8.5,8.5v32A8.51013,8.51013,0,0,1,419.75738,427.40775Z" transform="translate(-333.75738 -255.32415)" fill="#e6e6e6"/><path d="M523.75738,427.40775h-54a8.51012,8.51012,0,0,1-8.5-8.5v-32a8.51013,8.51013,0,0,1,8.5-8.5h54a8.51014,8.51014,0,0,1,8.5,8.5v32A8.51013,8.51013,0,0,1,523.75738,427.40775Z" transform="translate(-333.75738 -255.32415)" fill="#e6e6e6"/><path d="M573.75738,379.40775a7.5082,7.5082,0,0,0-7.5,7.5v32a7.50819,7.50819,0,0,0,7.5,7.5h54a7.5082,7.5082,0,0,0,7.5-7.5v-32a7.5082,7.5082,0,0,0-7.5-7.5Z" transform="translate(-333.75738 -255.32415)" fill="#e6e6e6"/><path d="M420.25738,491.40775h-54a8.51012,8.51012,0,0,1-8.5-8.5v-32a8.51013,8.51013,0,0,1,8.5-8.5h54a8.51014,8.51014,0,0,1,8.5,8.5v32A8.51013,8.51013,0,0,1,420.25738,491.40775Z" transform="translate(-333.75738 -255.32415)" fill="#e6e6e6"/><path d="M524.25738,491.40775h-54a8.51012,8.51012,0,0,1-8.5-8.5v-32a8.51013,8.51013,0,0,1,8.5-8.5h54a8.51014,8.51014,0,0,1,8.5,8.5v32A8.51013,8.51013,0,0,1,524.25738,491.40775Z" transform="translate(-333.75738 -255.32415)" fill="#e6e6e6"/><path d="M628.25738,491.40775h-54a8.51012,8.51012,0,0,1-8.5-8.5v-32a8.51013,8.51013,0,0,1,8.5-8.5h54a8.51014,8.51014,0,0,1,8.5,8.5v32A8.51013,8.51013,0,0,1,628.25738,491.40775Z" transform="translate(-333.75738 -255.32415)" fill="#e6e6e6"/><path d="M390.25738,342.40775a3.50424,3.50424,0,0,1-3.5-3.5v-50a3.5,3.5,0,0,1,7,0v50A3.50425,3.50425,0,0,1,390.25738,342.40775Z" transform="translate(-333.75738 -255.32415)" fill="#3f3d56"/><path d="M601.25738,342.40775a3.50424,3.50424,0,0,1-3.5-3.5v-50a3.5,3.5,0,0,1,7,0v50A3.50425,3.50425,0,0,1,601.25738,342.40775Z" transform="translate(-333.75738 -255.32415)" fill="#3f3d56"/><path id="b5e0804e-c461-433c-b77b-73087ef71cb0" data-name="Path 395" d="M390.71607,415.879a6.78778,6.78778,0,0,1-4.08354-1.35714l-.073-.05479-15.38069-11.76574a6.83507,6.83507,0,0,1,8.31719-10.84883l9.96238,7.63962L413,368.77943a6.83219,6.83219,0,0,1,9.579-1.26526l.002.00148-.1461.20287.15006-.20287a6.84044,6.84044,0,0,1,1.26378,9.581l-27.69011,36.1087a6.83631,6.83631,0,0,1-5.43658,2.66555Z" transform="translate(-333.75738 -255.32415)" fill="#f97026"/><path id="b3a0cc8c-ec19-4bca-9f18-6cf478ced8d1" data-name="Path 395" d="M497.71607,478.879a6.78778,6.78778,0,0,1-4.08354-1.35714l-.073-.05479-15.38069-11.76574a6.83507,6.83507,0,0,1,8.31719-10.84883l9.96238,7.63962L520,431.77943a6.83219,6.83219,0,0,1,9.579-1.26526l.002.00148-.1461.20287.15006-.20287a6.84044,6.84044,0,0,1,1.26378,9.581l-27.69011,36.1087a6.83631,6.83631,0,0,1-5.43658,2.66555Z" 
transform="translate(-333.75738 -255.32415)" fill="#f97026"/>
<path id="b29a902b-cd84-4f58-97ad-17c408cf2b06" data-name="Path 395" 
d="M598.71607,415.879a6.78778,6.78778,0,0,1-4.08354-1.35714l-.073-.05479-15.38069-11.76574a6.83507,6.83507,0,0,1,8.31719-10.84883l9.96238,7.63962L621,368.77943a6.83219,6.83219,0,0,1,9.579-1.26526l.002.00148-.1461.20287.15006-.20287a6.84044,6.84044,0,0,1,1.26378,9.581l-27.69011,36.1087a6.83631,6.83631,0,0,1-5.43658,2.66555Z" 
transform="translate(-333.75738 -255.32415)" fill="#f97026"/></svg>